<svg id="about__svg" width="300" height="100" viewBox="0 0 300 100" fill="none" xmlns="http://www.w3.org/2000/svg">
<path d="M2.912 5.27198L2.368 0.599977H0L2.4 23H6.176L8.576 0.599977H6.208L5.664 5.23998L4.288 20.216L2.912 5.27198Z" fill="white"/>
<path d="M10.4198 23H12.8518V16.312L17.2038 23H20.0198L15.3798 15.896C18.1318 14.584 20.0518 11.864 20.0518 8.66398C20.0518 4.21598 16.3717 0.599977 11.8918 0.599977H10.4198V23ZM17.6198 8.66398C17.6198 11.512 15.5718 13.944 12.8518 14.424V2.96798C15.5718 3.44798 17.6198 5.81598 17.6198 8.66398Z" fill="white"/>
<path d="M33.9175 21.144C30.7815 21.144 28.1255 19.992 26.4295 18.136L43.6775 6.23198C41.6615 2.61598 37.7895 0.151978 33.3415 0.151978C26.8455 0.151978 21.5655 5.36798 21.5655 11.8C21.5655 18.232 26.5575 23.448 33.9175 23.448C37.8855 23.448 41.2135 21.816 43.5175 18.488L41.5975 17.08C39.7415 19.896 37.0855 21.144 33.9175 21.144ZM23.9975 11.8C23.9975 6.64798 28.1255 2.45598 33.3415 2.45598C36.1575 2.45598 38.6855 3.70398 40.3815 5.65598L25.0855 16.184C24.3815 14.872 23.9975 13.4 23.9975 11.8Z" fill="white"/>
<path d="M47.3085 0.599977L44.7485 23H47.1165L47.3725 20.632H50.9565L51.2445 23H53.6125L51.0525 0.599977H47.3085ZM50.7005 18.328H47.6605L49.1645 3.28798L50.7005 18.328Z" fill="white"/>
<path d="M55.4198 23H62.7798V20.696H57.8517V0.599977H55.4198V23ZM60.3478 18.392H62.7798V0.599977H60.3478V18.392Z" fill="white"/>
<path d="M64.561 2.90398H68.145V23H70.577V2.90398H74.161V0.599977H64.561V2.90398Z" fill="white"/>
<path d="M77.967 23H80.399V19.544L83.215 0.599977H80.847L80.367 3.47998L79.151 14.52L77.839 3.47998L77.327 0.599977H74.959L77.967 19.544V23Z" fill="white"/>
<path d="M95.4713 12.792V10.424H90.4153V12.792H95.4713Z" fill="white"/>
<path d="M103.378 11.8C103.378 18.232 108.658 23.448 115.154 23.448C121.65 23.448 126.93 18.232 126.93 11.8C126.93 5.36798 121.65 0.151978 115.154 0.151978C108.658 0.151978 103.378 5.36798 103.378 11.8ZM105.81 11.8C105.81 6.64798 109.938 2.45598 115.154 2.45598C120.37 2.45598 124.498 6.64798 124.498 11.8C124.498 16.952 120.37 21.144 115.154 21.144C109.938 21.144 105.81 16.952 105.81 11.8Z" fill="white"/>
<path d="M134.191 0.599977H130.447L128.207 20.696H126.799V24.92H129.231V23H135.407V24.92H137.839V20.696H136.431L134.191 0.599977ZM133.775 18.36L134.031 20.696H130.575L130.863 18.328L132.303 3.41598L133.775 18.36Z" fill="white"/>
<path d="M148.771 0.599977H144.931L144.387 3.31998L141.219 20.024L141.539 3.25598V0.599977H139.107V23H142.947L143.555 19.992L146.659 3.44798L146.339 20.088V23H148.771V16.504H152.291V23H154.723V0.599977H152.291V14.2H148.771V0.599977Z" fill="white"/>
<path d="M166.889 0.599977V23H170.76L171.368 19.992L174.441 3.47998L174.12 20.088V23H176.553V0.599977H172.68L172.137 3.31998L169.001 19.992L169.32 3.25598V0.599977H166.889Z" fill="white"/>
<path d="M178.214 18.008C179.046 21.176 181.894 23.448 185.318 23.448C189.35 23.448 192.614 20.216 192.614 16.184C192.614 13.72 191.174 11.128 188.486 10.008C190.054 9.01598 190.822 7.41598 190.822 5.71998C190.822 2.67998 188.294 0.151978 185.126 0.151978C181.958 0.151978 179.43 2.67998 179.43 5.71998L181.862 5.97598V5.71998C181.862 3.92798 183.334 2.42398 185.126 2.42398C186.918 2.42398 188.39 3.92798 188.39 5.71998C188.39 7.35198 187.206 8.98398 185.51 8.98398H184.006V11.288H185.318C188.102 11.288 190.182 13.464 190.182 16.216C190.182 18.968 188.102 21.208 185.318 21.208C182.95 21.208 181.094 19.608 180.582 17.432L178.214 18.008Z" fill="white"/>
<path d="M209.712 23H212.145V0.599977H203.889V23H206.32V2.90398H209.712V23Z" fill="white"/>
<path d="M226.48 21.144C223.344 21.144 220.688 19.992 218.992 18.136L236.24 6.23198C234.224 2.61598 230.352 0.151978 225.904 0.151978C219.408 0.151978 214.128 5.36798 214.128 11.8C214.128 18.232 219.12 23.448 226.48 23.448C230.448 23.448 233.776 21.816 236.08 18.488L234.16 17.08C232.496 19.64 229.648 21.144 226.48 21.144ZM216.56 11.8C216.56 6.64798 220.688 2.45598 225.904 2.45598C228.72 2.45598 231.248 3.70398 232.944 5.65598L217.648 16.184C216.944 14.872 216.56 13.4 216.56 11.8Z" fill="white"/>
<path d="M237.951 23H240.383V18.552C244.959 18.072 248.511 14.232 248.511 9.59198C248.511 4.63198 244.447 0.599977 239.423 0.599977H237.951V23ZM246.079 9.59198C246.079 12.952 243.711 16.024 240.383 16.216V2.96798C243.775 3.25598 246.079 6.23198 246.079 9.59198Z" fill="white"/>
<path d="M252.313 23C256.281 23 259.545 19.8 259.545 15.864C259.545 13.176 257.977 10.84 255.545 9.62398C256.441 8.75998 256.889 7.54398 256.889 6.19998C256.889 3.38398 254.553 0.599977 251.257 0.599977H250.201V23H252.313ZM257.113 15.864C257.113 18.36 255.097 20.536 252.633 20.728V11.032C255.097 11.224 257.113 13.4 257.113 15.864ZM254.457 6.19998C254.457 7.51198 253.721 8.69598 252.633 9.23998V3.15998C253.721 3.73598 254.457 4.88798 254.457 6.19998Z" fill="white"/>
<path d="M263.602 0.599977H261.17V23H262.866C267.89 23 271.954 18.968 271.954 14.008C271.954 9.30398 268.274 5.43198 263.602 5.04798V0.599977ZM273.17 23H275.602V0.599977H273.17V23ZM269.522 14.008C269.522 17.464 267.026 20.536 263.602 20.664V7.35198C267.186 7.70398 269.522 10.584 269.522 14.008Z" fill="white"/>
<path d="M277.085 0.599977L286.813 11.8L277.085 23H280.253L282.813 20.056L288.413 13.432L294.013 20.056L296.605 23H299.773L290.013 11.8L299.773 0.599977H296.573L294.237 3.28798L288.413 10.136L282.621 3.28798L280.285 0.599977H277.085Z" fill="white"/>
<path d="M0.576 61H3.008V58.024L2.848 50.856L7.264 61H9.792L4.96 49.992L9.792 38.6H7.296L2.816 49.192L3.008 41.288V38.6H0.576V61Z" fill="white"/>
<path d="M16.7995 38.6H13.0555L10.6235 61H12.9915L13.5355 56.328L14.9115 41.512L16.3195 56.36L16.8635 61H19.2315L16.7995 38.6Z" fill="white"/>
<path d="M24.3245 54.088L22.8525 43.08L22.1805 38.6H19.8125L22.5005 56.968H23.8765L23.3645 61H25.7325L28.6125 38.6H26.2445L25.6685 43.08L24.3245 54.088Z" fill="white"/>
<path d="M30.4823 61H32.1782C36.8182 61 40.5942 57.288 40.5942 52.712C40.5942 48.36 37.2022 44.808 32.9142 44.424V40.904H37.9062V38.6H30.4823V61ZM38.1623 52.712C38.1623 55.752 35.9222 58.504 32.9142 58.664V46.76C35.8582 46.92 38.1623 49.672 38.1623 52.712Z" fill="white"/>
<path d="M41.8467 49.8C41.8467 56.232 47.1267 61.448 53.6227 61.448C60.1188 61.448 65.3988 56.232 65.3988 49.8C65.3988 43.368 60.1188 38.152 53.6227 38.152C47.1267 38.152 41.8467 43.368 41.8467 49.8ZM44.2788 49.8C44.2788 44.648 48.4067 40.456 53.6227 40.456C58.8387 40.456 62.9668 44.648 62.9668 49.8C62.9668 54.952 58.8387 59.144 53.6227 59.144C48.4067 59.144 44.2788 54.952 44.2788 49.8Z" fill="white"/>
<path d="M69.5005 61C73.4685 61 76.7325 57.8 76.7325 53.864C76.7325 51.176 75.1645 48.84 72.7325 47.624C73.6285 46.76 74.0765 45.544 74.0765 44.2C74.0765 41.384 71.7405 38.6 68.4445 38.6H67.3885V61H69.5005ZM74.3005 53.864C74.3005 56.36 72.2845 58.536 69.8205 58.728V49.032C72.2845 49.224 74.3005 51.4 74.3005 53.864ZM71.6445 44.2C71.6445 45.512 70.9085 46.696 69.8205 47.24V41.16C70.9085 41.736 71.6445 42.888 71.6445 44.2Z" fill="white"/>
<path d="M90.188 61C94.156 61 97.42 57.8 97.42 53.864C97.42 51.176 95.852 48.84 93.42 47.624C94.316 46.76 94.764 45.544 94.764 44.2C94.764 41.384 92.428 38.6 89.132 38.6H88.076V61H90.188ZM94.988 53.864C94.988 56.36 92.972 58.536 90.508 58.728V49.032C92.972 49.224 94.988 51.4 94.988 53.864ZM92.332 44.2C92.332 45.512 91.596 46.696 90.508 47.24V41.16C91.596 41.736 92.332 42.888 92.332 44.2Z" fill="white"/>
<path d="M99.0447 38.6V61H102.917L103.525 57.992L106.597 41.48L106.277 58.088V61H108.709V38.6H104.837L104.293 41.32L101.157 57.992L101.477 41.256V38.6H99.0447Z" fill="white"/>
<path d="M111.138 61H113.571V56.552C118.146 56.072 121.699 52.232 121.699 47.592C121.699 42.632 117.634 38.6 112.61 38.6H111.138V61ZM119.267 47.592C119.267 50.952 116.899 54.024 113.571 54.216V40.968C116.963 41.256 119.267 44.232 119.267 47.592Z" fill="white"/>
<path d="M121.53 40.904H125.114V61H127.546V40.904H131.13V38.6H121.53V40.904Z" fill="white"/>
<path d="M136.856 54.088L135.384 43.08L134.712 38.6H132.344L135.032 56.968H136.408L135.896 61H138.264L141.144 38.6H138.776L138.2 43.08L136.856 54.088Z" fill="white"/>
<path d="M144.309 38.6L141.749 61H144.117L144.372 58.632H147.956L148.245 61H150.613L148.053 38.6H144.309ZM146.165 41.288L147.701 56.328H144.661L146.165 41.288Z" fill="white"/>
<path d="M157.956 38.6H154.212L151.78 61H154.148L154.692 56.328L156.068 41.512L157.476 56.36L158.02 61H160.388L157.956 38.6Z" fill="white"/>
<path d="M164.602 38.6H162.17V61H163.866C168.89 61 172.954 56.968 172.954 52.008C172.954 47.304 169.274 43.432 164.602 43.048V38.6ZM170.522 52.008C170.522 55.464 168.026 58.536 164.602 58.664V45.352C168.186 45.704 170.522 48.584 170.522 52.008Z" fill="white"/>
<path d="M180.59 61H183.023V38.6H180.59V52.2H177.07V38.6H174.639V61H177.07V54.504H180.59V61Z" fill="white"/>
<path d="M185.003 49.8C185.003 56.232 190.283 61.448 196.779 61.448C203.275 61.448 208.555 56.232 208.555 49.8C208.555 43.368 203.275 38.152 196.779 38.152C190.283 38.152 185.003 43.368 185.003 49.8ZM187.435 49.8C187.435 44.648 191.563 40.456 196.779 40.456C201.995 40.456 206.123 44.648 206.123 49.8C206.123 54.952 201.995 59.144 196.779 59.144C191.563 59.144 187.435 54.952 187.435 49.8Z" fill="white"/>
<path d="M210.545 38.6V61H214.417L215.025 57.992L218.097 41.48L217.777 58.088V61H220.209V38.6H216.337L215.793 41.32L212.657 57.992L212.977 41.256V38.6H210.545ZM212.209 34.152V34.344C212.209 35.976 213.649 37.224 215.345 37.224C217.073 37.224 218.513 35.976 218.513 34.344V34.152H216.465V34.28C216.465 34.792 215.953 35.24 215.345 35.24C214.769 35.24 214.257 34.792 214.257 34.28V34.152H212.209Z" fill="white"/>
<path d="M0.576 99H3.008V94.552C7.584 94.072 11.136 90.232 11.136 85.592C11.136 80.632 7.072 76.6 2.048 76.6H0.576V99ZM8.704 85.592C8.704 88.952 6.336 92.024 3.008 92.216V78.968C6.4 79.256 8.704 82.232 8.704 85.592Z" fill="white"/>
<path d="M24.73 97.144C21.594 97.144 18.938 95.992 17.242 94.136L34.49 82.232C32.474 78.616 28.602 76.152 24.154 76.152C17.658 76.152 12.378 81.368 12.378 87.8C12.378 94.232 17.37 99.448 24.73 99.448C28.698 99.448 32.026 97.816 34.33 94.488L32.41 93.08C30.746 95.64 27.898 97.144 24.73 97.144ZM14.81 87.8C14.81 82.648 18.938 78.456 24.154 78.456C26.97 78.456 29.498 79.704 31.194 81.656L15.898 92.184C15.194 90.872 14.81 89.4 14.81 87.8Z" fill="white"/>
<path d="M38.121 76.6L35.561 99H37.929L38.185 96.632H41.769L42.057 99H44.425L41.865 76.6H38.121ZM39.977 79.288L41.513 94.328H38.473L39.977 79.288Z" fill="white"/>
<path d="M51.7682 76.6H48.0243L45.5923 99H47.9603L48.5042 94.328L49.8802 79.512L51.2882 94.36L51.8322 99H54.2002L51.7682 76.6Z" fill="white"/>
<path d="M58.4142 76.6H55.9823V99H57.6782C62.7022 99 66.7663 94.968 66.7663 90.008C66.7663 85.304 63.0863 81.432 58.4142 81.048V76.6ZM64.3343 90.008C64.3343 93.464 61.8382 96.536 58.4142 96.664V83.352C61.9982 83.704 64.3343 86.584 64.3343 90.008Z" fill="white"/>
<path d="M74.403 99H76.835V76.6H74.403V90.2H70.883V76.6H68.451V99H70.883V92.504H74.403V99Z" fill="white"/>
<path d="M90.7515 87.8C90.7515 91.16 92.2555 94.264 94.5595 96.376C93.3115 96.984 91.9995 97.24 90.7195 97.24C85.7915 97.24 81.2475 93.144 81.2475 87.8C81.2475 82.424 85.6955 78.36 90.7195 78.36C91.9995 78.36 93.3115 78.616 94.5915 79.192C92.2875 81.336 90.7515 84.44 90.7515 87.8ZM93.1835 87.8C93.1835 84.92 94.2075 82.264 96.5435 80.344C98.8795 82.264 99.9035 84.92 99.9035 87.8C99.9035 90.68 98.8795 93.336 96.5435 95.256C94.2075 93.336 93.1835 90.68 93.1835 87.8ZM102.399 97.24C101.119 97.24 99.8075 96.984 98.5595 96.376C100.864 94.264 102.368 91.16 102.368 87.8C102.368 84.44 100.832 81.336 98.5275 79.192C99.8075 78.616 101.119 78.36 102.399 78.36C105.471 78.36 108.287 79.896 109.983 82.136L111.84 80.696C109.663 77.944 106.304 76.152 102.528 76.152C100.352 76.152 98.3035 76.76 96.5435 77.784C94.7835 76.76 92.7675 76.152 90.5915 76.152C84.0955 76.152 78.8155 81.368 78.8155 87.8C78.8155 94.232 84.0955 99.448 90.5915 99.448C92.7675 99.448 94.7835 98.872 96.5435 97.848C98.3035 98.872 100.352 99.448 102.528 99.448C106.432 99.448 109.855 97.592 112 94.712L110.079 93.304C108.223 95.832 105.695 97.24 102.399 97.24Z" fill="white"/>
<path d="M112.28 78.904H115.864V99H118.296V78.904H121.88V76.6H112.28V78.904Z" fill="white"/>
<path d="M123.67 76.6V99H127.542L128.15 95.992L131.222 79.48L130.902 96.088V99H133.334V76.6H129.462L128.918 79.32L125.782 95.992L126.102 79.256V76.6H123.67Z" fill="white"/>
<path d="M147.594 99C151.562 99 154.826 95.8 154.826 91.864C154.826 89.176 153.258 86.84 150.826 85.624C151.722 84.76 152.17 83.544 152.17 82.2C152.17 79.384 149.834 76.6 146.538 76.6H145.482V99H147.594ZM152.394 91.864C152.394 94.36 150.378 96.536 147.914 96.728V87.032C150.378 87.224 152.394 89.4 152.394 91.864ZM149.738 82.2C149.738 83.512 149.002 84.696 147.914 85.24V79.16C149.002 79.736 149.738 80.888 149.738 82.2Z" fill="white"/>
<path d="M174.938 99L176.954 79.16L177.978 96.056L178.202 99H180.57L179.034 76.6H174.842L174.298 81.24L173.05 95.992L171.802 81.24L171.258 76.6H167.066L165.53 99H167.898L168.122 96.056L169.146 79.16L171.162 99H174.938Z" fill="white"/>
<path d="M193.845 87.8C193.845 91.16 195.349 94.264 197.653 96.376C196.405 96.984 195.093 97.24 193.813 97.24C188.885 97.24 184.341 93.144 184.341 87.8C184.341 82.424 188.789 78.36 193.813 78.36C195.093 78.36 196.405 78.616 197.685 79.192C195.381 81.336 193.845 84.44 193.845 87.8ZM196.277 87.8C196.277 84.92 197.301 82.264 199.637 80.344C201.973 82.264 202.997 84.92 202.997 87.8C202.997 90.68 201.973 93.336 199.637 95.256C197.301 93.336 196.277 90.68 196.277 87.8ZM205.493 97.24C204.213 97.24 202.901 96.984 201.653 96.376C203.957 94.264 205.461 91.16 205.461 87.8C205.461 84.44 203.925 81.336 201.621 79.192C202.901 78.616 204.213 78.36 205.493 78.36C208.565 78.36 211.381 79.896 213.077 82.136L214.933 80.696C212.757 77.944 209.397 76.152 205.621 76.152C203.445 76.152 201.397 76.76 199.637 77.784C197.877 76.76 195.861 76.152 193.685 76.152C187.189 76.152 181.909 81.368 181.909 87.8C181.909 94.232 187.189 99.448 193.685 99.448C195.861 99.448 197.877 98.872 199.637 97.848C201.397 98.872 203.445 99.448 205.621 99.448C209.525 99.448 212.949 97.592 215.093 94.712L213.173 93.304C211.317 95.832 208.789 97.24 205.493 97.24Z" fill="white"/>
<path d="M216.795 99H219.227V96.024L219.067 88.856L223.483 99H226.011L221.179 87.992L226.011 76.6H223.515L219.035 87.192L219.227 79.288V76.6H216.795V99Z" fill="white"/>
<path d="M229.594 99C233.562 99 236.826 95.8 236.826 91.864C236.826 89.176 235.258 86.84 232.826 85.624C233.722 84.76 234.17 83.544 234.17 82.2C234.17 79.384 231.834 76.6 228.538 76.6H227.482V99H229.594ZM234.394 91.864C234.394 94.36 232.378 96.536 229.914 96.728V87.032C232.378 87.224 234.394 89.4 234.394 91.864ZM231.738 82.2C231.738 83.512 231.002 84.696 229.914 85.24V79.16C231.002 79.736 231.738 80.888 231.738 82.2Z" fill="white"/>
<path d="M250.355 97.144C247.219 97.144 244.563 95.992 242.867 94.136L260.115 82.232C258.099 78.616 254.227 76.152 249.779 76.152C243.283 76.152 238.003 81.368 238.003 87.8C238.003 94.232 242.995 99.448 250.355 99.448C254.323 99.448 257.651 97.816 259.955 94.488L258.035 93.08C256.371 95.64 253.523 97.144 250.355 97.144ZM240.435 87.8C240.435 82.648 244.563 78.456 249.779 78.456C252.595 78.456 255.123 79.704 256.819 81.656L241.523 92.184C240.819 90.872 240.435 89.4 240.435 87.8Z" fill="white"/>
<path d="M260.911 97.88C260.911 98.744 261.615 99.448 262.479 99.448C263.408 99.448 264.112 98.744 264.112 97.88C264.112 96.952 263.408 96.248 262.479 96.248C261.615 96.248 260.911 96.952 260.911 97.88Z" fill="white"/>
</svg>
