<svg id="logo" width="95" height="27" viewBox="0 0 95 27" fill="none" xmlns="http://www.w3.org/2000/svg">
<path d="M3.99597 6.05599L3.38397 0.79999H0.719971L3.41997 26H7.66797L10.368 0.79999H7.70397L7.09197 6.01999L5.54397 22.868L3.99597 6.05599Z" fill="white"/>
<path d="M12.4422 26H15.1782V18.476L20.0742 26H23.2422L18.0222 18.008C21.1182 16.532 23.2782 13.472 23.2782 9.87199C23.2782 4.86799 19.1382 0.79999 14.0982 0.79999H12.4422V26ZM20.5422 9.87199C20.5422 13.076 18.2382 15.812 15.1782 16.352V3.46399C18.2382 4.00399 20.5422 6.66799 20.5422 9.87199Z" fill="white"/>
<path d="M38.8772 23.912C35.3492 23.912 32.3612 22.616 30.4532 20.528L49.8572 7.13599C47.5892 3.06799 43.2332 0.29599 38.2292 0.29599C30.9212 0.29599 24.9812 6.16399 24.9812 13.4C24.9812 20.636 30.5972 26.504 38.8772 26.504C43.3412 26.504 47.0852 24.668 49.6772 20.924L47.5172 19.34C45.4292 22.508 42.4412 23.912 38.8772 23.912ZM27.7172 13.4C27.7172 7.60399 32.3612 2.88799 38.2292 2.88799C41.3972 2.88799 44.2412 4.29199 46.1492 6.48799L28.9412 18.332C28.1492 16.856 27.7172 15.2 27.7172 13.4Z" fill="white"/>
<path d="M53.942 0.79999L51.062 26H53.726L54.014 23.336H58.046L58.37 26H61.034L58.154 0.79999H53.942ZM57.758 20.744H54.338L56.03 3.82399L57.758 20.744Z" fill="white"/>
<path d="M63.0672 26H71.3472V23.408H65.8032V0.79999H63.0672V26ZM68.6112 20.816H71.3472V0.79999H68.6112V20.816Z" fill="white"/>
<path d="M73.3511 3.39199H77.3831V26H80.1191V3.39199H84.1511V0.79999H73.3511V3.39199Z" fill="white"/>
<path d="M88.4328 26H91.1688V22.112L94.3368 0.79999H91.6728L91.1328 4.03999L89.7648 16.46L88.2888 4.03999L87.7128 0.79999H85.0488L88.4328 22.112V26Z" fill="white"/>
</svg>
