<svg id="fb" width="15" height="26" viewBox="0 0 15 26" fill="none" xmlns="http://www.w3.org/2000/svg">
<path d="M13.5927 0.914268L10.3861 0.909119C6.78359 0.909119 4.45556 3.29766 4.45556 6.99453V9.80032H1.2315C0.952895 9.80032 0.727295 10.0262 0.727295 10.3048V14.3701C0.727295 14.6488 0.953157 14.8742 1.2315 14.8742H4.45556V25.1322C4.45556 25.4108 4.68117 25.6364 4.95976 25.6364H9.16628C9.44482 25.6364 9.67042 25.4105 9.67042 25.1322V14.8742H13.4402C13.7187 14.8742 13.9443 14.6488 13.9443 14.3701L13.9459 10.3048C13.9459 10.171 13.8927 10.0429 13.7983 9.94823C13.7039 9.85357 13.5751 9.80032 13.4415 9.80032H9.67042V7.42182C9.67042 6.27862 9.94286 5.69827 11.432 5.69827L13.5922 5.6975C13.8706 5.6975 14.0962 5.47163 14.0962 5.19329V1.41847C14.0962 1.14038 13.8707 0.914777 13.5927 0.914268Z" fill="white"/>
</svg>
