<svg id="vk" width="30" height="18" viewBox="0 0 30 18" fill="none" xmlns="http://www.w3.org/2000/svg">
<path d="M29.3912 16.0361C29.356 15.9562 29.3231 15.89 29.2925 15.8368C28.7878 14.8809 27.8234 13.7075 26.3996 12.3165L26.3695 12.2845L26.3546 12.269L26.3392 12.253H26.324C25.6777 11.6053 25.2685 11.1696 25.0973 10.9467C24.7839 10.5219 24.7135 10.0919 24.8849 9.65624C25.0059 9.32714 25.4607 8.632 26.248 7.56986C26.6622 7.00705 26.9902 6.55594 27.2325 6.21606C28.9796 3.77359 29.737 2.21282 29.5046 1.53313L29.4143 1.3743C29.3536 1.27868 29.1972 1.1912 28.9449 1.11142C28.6923 1.03182 28.3692 1.01865 27.9754 1.07171L23.6134 1.10339C23.5427 1.07705 23.4417 1.07951 23.3103 1.11142C23.1791 1.14334 23.1133 1.15934 23.1133 1.15934L23.0374 1.19924L22.9772 1.24716C22.9267 1.27885 22.8711 1.33459 22.8104 1.41425C22.75 1.49363 22.6998 1.58681 22.6593 1.69297C22.1843 2.97786 21.6445 4.17248 21.0385 5.27678C20.6649 5.93527 20.3217 6.50594 20.0085 6.98907C19.6954 7.4722 19.4328 7.82803 19.2209 8.05623C19.0086 8.28443 18.8172 8.46745 18.6452 8.6056C18.4736 8.74392 18.3425 8.80222 18.2517 8.78084C18.1607 8.75963 18.075 8.73841 17.9939 8.71719C17.8526 8.62147 17.739 8.49142 17.6533 8.32687C17.5673 8.16232 17.5093 7.95517 17.4792 7.70559C17.4488 7.45584 17.4311 7.24108 17.426 7.06049C17.4213 6.88023 17.4234 6.62506 17.4337 6.29589C17.4442 5.96656 17.4488 5.74373 17.4488 5.62693C17.4488 5.22334 17.4564 4.78533 17.4713 4.31281C17.4867 3.84025 17.499 3.46586 17.5093 3.19003C17.5197 2.91392 17.5244 2.62182 17.5244 2.31387C17.5244 2.0059 17.5066 1.76438 17.4713 1.58909C17.4367 1.41403 17.3832 1.2441 17.3128 1.07935C17.242 0.914767 17.1383 0.787449 17.0023 0.697075C16.866 0.606814 16.6965 0.535178 16.4949 0.481958C15.9597 0.354576 15.2781 0.285677 14.4499 0.274972C12.5719 0.253771 11.3652 0.3813 10.83 0.657411C10.6179 0.774071 10.426 0.933457 10.2545 1.13508C10.0727 1.36878 10.0473 1.49632 10.1786 1.51729C10.7845 1.61275 11.2135 1.8411 11.466 2.20211L11.5569 2.39342C11.6277 2.53143 11.6984 2.7758 11.7691 3.12615C11.8397 3.47651 11.8853 3.86408 11.9053 4.28863C11.9557 5.06393 11.9557 5.72762 11.9053 6.27971C11.8548 6.83197 11.807 7.26197 11.7614 7.57002C11.7159 7.87791 11.6478 8.12749 11.5569 8.31861C11.466 8.50972 11.4054 8.6265 11.3751 8.66893C11.3448 8.71136 11.3195 8.73809 11.2995 8.74845C11.1682 8.80141 11.0317 8.8283 10.8905 8.8283C10.749 8.8283 10.5774 8.75396 10.3755 8.60512C10.1736 8.45644 9.96415 8.2522 9.747 7.99193C9.52986 7.73166 9.285 7.36806 9.01225 6.9008C8.73973 6.43364 8.45696 5.88148 8.16413 5.24437L7.92184 4.78232C7.77039 4.48507 7.56349 4.05226 7.30095 3.48426C7.03824 2.91606 6.80604 2.36641 6.60418 1.83545C6.52348 1.61246 6.40226 1.44269 6.24073 1.32587L6.16493 1.27795C6.11452 1.23556 6.03362 1.19054 5.92264 1.14255C5.8115 1.09462 5.69552 1.06027 5.57425 1.03912L1.42414 1.07082C1.00006 1.07082 0.71231 1.17185 0.560795 1.37363L0.500161 1.46909C0.469868 1.52225 0.45459 1.60717 0.45459 1.72405C0.45459 1.84088 0.484884 1.98426 0.545517 2.15401C1.15136 3.65142 1.8102 5.09553 2.52204 6.48657C3.23387 7.87759 3.85244 8.9982 4.37736 9.8472C4.90241 10.6968 5.4376 11.4987 5.9829 12.2523C6.52821 13.0064 6.88916 13.4895 7.06578 13.7019C7.2426 13.9145 7.38147 14.0736 7.48242 14.1797L7.86116 14.5619C8.1035 14.8168 8.45935 15.1221 8.92891 15.4778C9.39857 15.8336 9.91852 16.1839 10.489 16.5294C11.0596 16.8742 11.7235 17.1555 12.4809 17.3732C13.2382 17.591 13.9753 17.6785 14.6922 17.6364H16.4342C16.7873 17.6042 17.055 17.4875 17.2369 17.2859L17.2971 17.2061C17.3378 17.1426 17.3757 17.0443 17.4106 16.9116C17.4461 16.779 17.4636 16.6327 17.4636 16.4737C17.4533 16.0171 17.4864 15.6056 17.562 15.2394C17.6375 14.8732 17.7234 14.597 17.8197 14.4111C17.9159 14.2253 18.0244 14.0685 18.1453 13.9414C18.2663 13.8141 18.3526 13.737 18.4032 13.7105C18.4534 13.6837 18.4936 13.6656 18.524 13.6546C18.7662 13.5697 19.0515 13.652 19.38 13.9017C19.7081 14.1513 20.0162 14.4594 20.304 14.8256C20.5919 15.1921 20.9376 15.6035 21.3413 16.0599C21.7455 16.5166 22.0988 16.8561 22.4015 17.0794L22.7044 17.2705C22.9068 17.398 23.1692 17.5149 23.4925 17.621C23.8151 17.7272 24.0977 17.7538 24.3403 17.7007L28.2177 17.637C28.6013 17.637 28.8996 17.5703 29.1112 17.4378C29.3235 17.305 29.4494 17.1588 29.4899 16.9999C29.5306 16.8407 29.5328 16.6599 29.4976 16.458C29.4618 16.2565 29.4263 16.1156 29.3912 16.0361Z" fill="white"/>
</svg>
