<svg width="95" height="27" viewBox="0 0 95 27" fill="none" xmlns="http://www.w3.org/2000/svg">
<path d="M3.996 6.056L3.384 0.799998H0.72L3.42 26H7.668L10.368 0.799998H7.704L7.092 6.02L5.544 22.868L3.996 6.056ZM12.4422 26H15.1782V18.476L20.0742 26H23.2422L18.0222 18.008C21.1182 16.532 23.2782 13.472 23.2782 9.872C23.2782 4.868 19.1382 0.799998 14.0982 0.799998H12.4422V26ZM20.5422 9.872C20.5422 13.076 18.2382 15.812 15.1782 16.352V3.464C18.2382 4.004 20.5422 6.668 20.5422 9.872ZM38.8772 23.912C35.3492 23.912 32.3612 22.616 30.4532 20.528L49.8572 7.136C47.5892 3.068 43.2332 0.295998 38.2292 0.295998C30.9212 0.295998 24.9812 6.164 24.9812 13.4C24.9812 20.636 30.5972 26.504 38.8772 26.504C43.3412 26.504 47.0852 24.668 49.6772 20.924L47.5172 19.34C45.4292 22.508 42.4412 23.912 38.8772 23.912ZM27.7172 13.4C27.7172 7.604 32.3612 2.888 38.2292 2.888C41.3972 2.888 44.2412 4.292 46.1492 6.488L28.9412 18.332C28.1492 16.856 27.7172 15.2 27.7172 13.4ZM53.9421 0.799998L51.0621 26H53.7261L54.0141 23.336H58.0461L58.3701 26H61.0341L58.1541 0.799998H53.9421ZM57.7581 20.744H54.3381L56.0301 3.824L57.7581 20.744ZM63.0672 26H71.3472V23.408H65.8032V0.799998H63.0672V26ZM68.6112 20.816H71.3472V0.799998H68.6112V20.816ZM73.3511 3.392H77.3831V26H80.1191V3.392H84.1511V0.799998H73.3511V3.392ZM88.4329 26H91.1689V22.112L94.3369 0.799998H91.6729L91.1329 4.04L89.7649 16.46L88.2889 4.04L87.7129 0.799998H85.0489L88.4329 22.112V26Z" fill="white"/>
</svg>
