<svg width="30" height="18" viewBox="0 0 30 18" fill="none" xmlns="http://www.w3.org/2000/svg">
<path d="M29.3912 16.0363C29.356 15.9564 29.3231 15.8902 29.2925 15.8371C28.7878 14.8812 27.8234 13.7078 26.3996 12.3167L26.3695 12.2848L26.3546 12.2692L26.3392 12.2532H26.324C25.6777 11.6055 25.2685 11.1699 25.0973 10.947C24.7839 10.5222 24.7135 10.0922 24.8849 9.65649C25.0059 9.32738 25.4607 8.63225 26.248 7.57011C26.6622 7.00729 26.9902 6.55618 27.2325 6.2163C28.9796 3.77383 29.737 2.21306 29.5046 1.53338L29.4143 1.37454C29.3536 1.27892 29.1972 1.19145 28.9449 1.11166C28.6923 1.03206 28.3692 1.01889 27.9754 1.07195L23.6134 1.10363C23.5427 1.0773 23.4417 1.07976 23.3103 1.11166C23.1791 1.14359 23.1133 1.15959 23.1133 1.15959L23.0374 1.19948L22.9772 1.2474C22.9267 1.2791 22.8711 1.33483 22.8104 1.4145C22.75 1.49388 22.6998 1.58705 22.6593 1.69322C22.1843 2.9781 21.6445 4.17273 21.0385 5.27703C20.6649 5.93551 20.3217 6.50618 20.0085 6.98931C19.6954 7.47244 19.4328 7.82827 19.2209 8.05648C19.0086 8.28468 18.8172 8.46769 18.6452 8.60585C18.4736 8.74416 18.3425 8.80247 18.2517 8.78109C18.1607 8.75987 18.075 8.73865 17.9939 8.71744C17.8526 8.62172 17.739 8.49166 17.6533 8.32711C17.5673 8.16256 17.5093 7.95541 17.4792 7.70583C17.4488 7.45609 17.4311 7.24132 17.426 7.06074C17.4213 6.88048 17.4234 6.62531 17.4337 6.29614C17.4442 5.9668 17.4488 5.74398 17.4488 5.62717C17.4488 5.22358 17.4564 4.78557 17.4713 4.31305C17.4867 3.8405 17.499 3.46611 17.5093 3.19027C17.5197 2.91416 17.5244 2.62206 17.5244 2.31411C17.5244 2.00614 17.5066 1.76463 17.4713 1.58934C17.4367 1.41427 17.3832 1.24434 17.3128 1.0796C17.242 0.915011 17.1383 0.787693 17.0023 0.697319C16.866 0.607058 16.6965 0.535422 16.4949 0.482202C15.9597 0.35482 15.2781 0.285921 14.4499 0.275216C12.5719 0.254015 11.3652 0.381544 10.83 0.657655C10.6179 0.774315 10.426 0.933701 10.2545 1.13533C10.0727 1.36902 10.0473 1.49656 10.1786 1.51754C10.7845 1.613 11.2135 1.84135 11.466 2.20236L11.5569 2.39367C11.6277 2.53167 11.6984 2.77604 11.7691 3.12639C11.8397 3.47675 11.8853 3.86432 11.9053 4.28887C11.9557 5.06418 11.9557 5.72786 11.9053 6.27995C11.8548 6.83221 11.807 7.26222 11.7614 7.57027C11.7159 7.87816 11.6478 8.12774 11.5569 8.31885C11.466 8.50997 11.4054 8.62674 11.3751 8.66917C11.3448 8.71161 11.3195 8.73833 11.2995 8.7487C11.1682 8.80166 11.0317 8.82854 10.8905 8.82854C10.749 8.82854 10.5774 8.7542 10.3755 8.60536C10.1736 8.45668 9.96415 8.25245 9.747 7.99218C9.52986 7.7319 9.285 7.3683 9.01225 6.90104C8.73973 6.43388 8.45696 5.88173 8.16413 5.24462L7.92184 4.78256C7.77039 4.48531 7.56349 4.05251 7.30095 3.48451C7.03824 2.9163 6.80604 2.36665 6.60418 1.83569C6.52348 1.61271 6.40226 1.44294 6.24073 1.32612L6.16493 1.27819C6.11452 1.23581 6.03362 1.19078 5.92264 1.14279C5.8115 1.09487 5.69552 1.06052 5.57425 1.03936L1.42414 1.07106C1.00006 1.07106 0.71231 1.17209 0.560795 1.37388L0.500161 1.46934C0.469868 1.52249 0.45459 1.60741 0.45459 1.7243C0.45459 1.84112 0.484884 1.9845 0.545517 2.15426C1.15136 3.65167 1.8102 5.09578 2.52204 6.48681C3.23387 7.87783 3.85244 8.99844 4.37736 9.84744C4.90241 10.6971 5.4376 11.499 5.9829 12.2526C6.52821 13.0067 6.88916 13.4898 7.06578 13.7021C7.2426 13.9148 7.38147 14.0738 7.48242 14.1799L7.86116 14.5621C8.1035 14.8171 8.45935 15.1223 8.92891 15.478C9.39857 15.8338 9.91852 16.1842 10.489 16.5296C11.0596 16.8744 11.7235 17.1558 12.4809 17.3734C13.2382 17.5913 13.9753 17.6787 14.6922 17.6366H16.4342C16.7873 17.6044 17.055 17.4878 17.2369 17.2861L17.2971 17.2063C17.3378 17.1428 17.3757 17.0445 17.4106 16.9119C17.4461 16.7792 17.4636 16.633 17.4636 16.4739C17.4533 16.0173 17.4864 15.6058 17.562 15.2396C17.6375 14.8734 17.7234 14.5973 17.8197 14.4113C17.9159 14.2256 18.0244 14.0688 18.1453 13.9417C18.2663 13.8144 18.3526 13.7373 18.4032 13.7107C18.4534 13.684 18.4936 13.6658 18.524 13.6548C18.7662 13.57 19.0515 13.6522 19.38 13.902C19.7081 14.1516 20.0162 14.4596 20.304 14.8258C20.5919 15.1923 20.9376 15.6037 21.3413 16.0601C21.7455 16.5168 22.0988 16.8563 22.4015 17.0797L22.7044 17.2708C22.9068 17.3982 23.1692 17.5152 23.4925 17.6212C23.8151 17.7275 24.0977 17.7541 24.3403 17.7009L28.2177 17.6373C28.6013 17.6373 28.8996 17.5706 29.1112 17.4381C29.3235 17.3053 29.4494 17.159 29.4899 17.0001C29.5306 16.8409 29.5328 16.6602 29.4976 16.4582C29.4618 16.2567 29.4263 16.1158 29.3912 16.0363Z" fill="white"/>
</svg>
