<svg id="you" width="30" height="23" viewBox="0 0 30 23" fill="none" xmlns="http://www.w3.org/2000/svg">
<path d="M28.4115 2.69112C27.3615 1.36081 25.4227 0.818176 21.7202 0.818176H8.27968C4.49232 0.818176 2.5207 1.39582 1.47456 2.81211C0.45459 4.19301 0.45459 6.22767 0.45459 9.04368V14.4109C0.45459 19.8665 1.66477 22.6364 8.27968 22.6364H21.7202C24.9311 22.6364 26.7103 22.1577 27.8614 20.9836C29.0419 19.7796 29.5455 17.8141 29.5455 14.4109V9.04368C29.5455 6.07396 29.4667 4.02731 28.4115 2.69112ZM19.1311 12.4684L13.0278 15.8676C12.8913 15.9437 12.7421 15.9814 12.5931 15.9814C12.4244 15.9814 12.256 15.9329 12.1069 15.8368C11.8261 15.6554 11.6547 15.3312 11.6547 14.9812V8.2044C11.6547 7.85518 11.8257 7.53117 12.1059 7.34974C12.3862 7.16834 12.7348 7.15594 13.0256 7.31694L19.1289 10.6944C19.4395 10.8662 19.6344 11.2078 19.6348 11.5805C19.6352 11.9536 19.4412 12.2957 19.1311 12.4684Z" fill="white"/>
</svg>
